<svg xmlns="http://www.w3.org/2000/svg"
     width="1867" height="1878"
     viewBox="0 0 1867 1878">
  <rect x="5" y="5"
        width="1857" height="1868"
        fill="none"
        stroke="#000000"
        stroke-width="10"/>
  <path d="M 1249 333 L 1230 333 L 1229 332 L 1207 332 L 1206 331 L 1184 331 L 1183 330 L 1162 330 L 1161 329 L 1139 329 L 1138 328 L 1116 328 L 1115 327 L 1094 327 L 1093 326 L 1071 326 L 1070 325 L 1049 325 L 1048 324 L 1016 324 L 1015 325 L 1003 325 L 1002 326 L 994 326 L 993 327 L 987 327 L 986 328 L 981 328 L 980 329 L 975 329 L 974 330 L 971 330 L 970 331 L 966 331 L 965 332 L 962 332 L 961 333 L 958 333 L 957 334 L 955 334 L 954 335 L 951 335 L 950 336 L 948 336 L 947 337 L 945 337 L 944 338 L 942 338 L 941 339 L 939 339 L 938 340 L 936 340 L 933 342 L 931 342 L 928 344 L 926 344 L 923 346 L 921 346 L 920 347 L 919 347 L 918 348 L 917 348 L 916 349 L 915 349 L 914 350 L 913 350 L 912 351 L 911 351 L 910 352 L 909 352 L 908 353 L 907 353 L 906 354 L 905 354 L 904 355 L 901 356 L 899 358 L 896 359 L 894 361 L 891 362 L 889 364 L 888 364 L 886 366 L 885 366 L 883 368 L 882 368 L 880 370 L 879 370 L 876 373 L 875 373 L 872 376 L 871 376 L 867 380 L 866 380 L 861 385 L 860 385 L 837 408 L 837 409 L 831 415 L 831 416 L 827 420 L 827 421 L 824 424 L 824 425 L 821 428 L 821 429 L 819 431 L 819 432 L 816 435 L 816 436 L 812 441 L 811 444 L 809 446 L 808 449 L 806 451 L 805 454 L 803 456 L 803 457 L 802 458 L 802 459 L 801 460 L 801 461 L 800 462 L 800 463 L 799 464 L 799 465 L 798 466 L 798 467 L 797 468 L 797 469 L 796 470 L 796 471 L 795 472 L 795 473 L 794 474 L 794 475 L 793 476 L 793 477 L 790 482 L 790 484 L 788 487 L 788 489 L 785 494 L 785 496 L 784 497 L 784 499 L 782 502 L 782 504 L 781 505 L 781 507 L 780 508 L 780 510 L 779 511 L 779 513 L 778 514 L 778 516 L 777 517 L 777 519 L 776 520 L 776 522 L 775 523 L 775 526 L 774 527 L 774 529 L 773 530 L 773 533 L 772 534 L 772 537 L 771 538 L 771 541 L 770 542 L 770 545 L 769 546 L 769 550 L 768 551 L 768 555 L 767 556 L 767 560 L 766 561 L 766 565 L 765 566 L 765 571 L 764 572 L 764 578 L 763 579 L 763 585 L 762 586 L 762 594 L 761 595 L 761 606 L 760 607 L 760 626 L 759 627 L 759 815 L 758 816 L 544 816 L 544 1053 L 758 1053 L 759 1054 L 759 1642 L 760 1643 L 1014 1643 L 1014 1054 L 1015 1053 L 1203 1053 L 1203 1052 L 1204 1051 L 1204 1046 L 1205 1045 L 1205 1039 L 1206 1038 L 1206 1033 L 1207 1032 L 1207 1027 L 1208 1026 L 1208 1020 L 1209 1019 L 1209 1014 L 1210 1013 L 1210 1008 L 1211 1007 L 1211 1002 L 1212 1001 L 1212 995 L 1213 994 L 1213 989 L 1214 988 L 1214 983 L 1215 982 L 1215 976 L 1216 975 L 1216 970 L 1217 969 L 1217 964 L 1218 963 L 1218 957 L 1219 956 L 1219 951 L 1220 950 L 1220 945 L 1221 944 L 1221 938 L 1222 937 L 1222 932 L 1223 931 L 1223 926 L 1224 925 L 1224 919 L 1225 918 L 1225 913 L 1226 912 L 1226 907 L 1227 906 L 1227 901 L 1228 900 L 1228 894 L 1229 893 L 1229 888 L 1230 887 L 1230 882 L 1231 881 L 1231 875 L 1232 874 L 1232 869 L 1233 868 L 1233 863 L 1234 862 L 1234 856 L 1235 855 L 1235 850 L 1236 849 L 1236 844 L 1237 843 L 1237 837 L 1238 836 L 1238 831 L 1239 830 L 1239 825 L 1240 824 L 1240 819 L 1241 818 L 1241 816 L 1015 816 L 1014 815 L 1014 632 L 1015 631 L 1015 621 L 1016 620 L 1016 615 L 1017 614 L 1017 611 L 1018 610 L 1018 607 L 1019 606 L 1019 604 L 1021 601 L 1021 599 L 1022 598 L 1022 597 L 1023 596 L 1023 595 L 1024 594 L 1024 593 L 1025 592 L 1025 591 L 1026 590 L 1027 587 L 1029 585 L 1029 584 L 1031 582 L 1031 581 L 1034 578 L 1034 577 L 1039 572 L 1039 571 L 1052 559 L 1053 559 L 1056 556 L 1057 556 L 1059 554 L 1060 554 L 1065 550 L 1066 550 L 1067 549 L 1068 549 L 1069 548 L 1070 548 L 1071 547 L 1072 547 L 1073 546 L 1074 546 L 1075 545 L 1076 545 L 1077 544 L 1078 544 L 1083 541 L 1085 541 L 1088 539 L 1090 539 L 1091 538 L 1093 538 L 1094 537 L 1096 537 L 1097 536 L 1100 536 L 1101 535 L 1104 535 L 1105 534 L 1108 534 L 1109 533 L 1114 533 L 1115 532 L 1121 532 L 1122 531 L 1134 531 L 1135 530 L 1250 530 L 1250 334 Z" fill="#000000"/>
</svg>
